<svg width="29" height="28" viewBox="0 0 29 28" fill="none" xmlns="http://www.w3.org/2000/svg">
<path d="M5.49285 0.213627C5.10425 0.196092 4.71275 0.196093 4.32414 0.225318L4.32124 0.222395C3.94674 0.245829 3.58078 0.345233 3.24533 0.514649C2.99302 0.64324 2.76102 0.830284 2.39271 1.18099C2.04761 1.51124 1.84751 1.79765 1.6358 2.07236C0.563796 3.48006 -0.0117722 5.20782 0.000182534 6.98223C0.0273438 8.41254 0.354477 9.82087 0.960095 11.1147C2.14331 13.7508 4.09214 16.5419 6.67317 19.1283C7.29378 19.7508 7.89989 20.3762 8.5553 20.9578C11.7552 23.797 15.5683 25.8444 19.6914 26.9373C19.6914 26.9373 21.3155 27.1916 21.3387 27.1916C21.8781 27.2208 22.4146 27.1799 22.9511 27.1507C23.7955 27.1077 24.6202 26.8782 25.3668 26.4785C25.7462 26.2807 26.1168 26.0662 26.4775 25.8355C26.6002 25.7504 26.721 25.6627 26.84 25.5725C27.1841 25.3222 27.5044 25.0405 27.7971 24.7308C28.0455 24.4713 28.2511 24.1733 28.4061 23.8482C28.6323 23.3718 28.8585 22.4629 28.9513 21.706C29.018 21.1273 29.0006 20.8117 28.989 20.6159C28.9803 20.3032 28.7222 19.9788 28.438 19.8414L26.7501 19.0786C26.7501 19.0786 24.23 17.971 22.6901 17.2608C22.5277 17.1877 22.3508 17.1556 22.1768 17.1439C21.9784 17.1234 21.7779 17.1459 21.5888 17.2099C21.3997 17.2739 21.2264 17.378 21.0806 17.5151V17.5092C21.0632 17.5092 20.8718 17.6758 18.7721 20.2389C18.652 20.4013 18.4867 20.5241 18.2972 20.5918C18.1078 20.6594 17.9026 20.6688 17.7078 20.6188C17.5193 20.5691 17.3337 20.5019 17.1539 20.4259C16.7943 20.271 16.6696 20.2126 16.4231 20.1044L16.4086 20.0986C14.7498 19.368 13.2128 18.3831 11.8555 17.1761C11.4901 16.8517 11.1508 16.5039 10.8028 16.1649C9.58481 14.9725 8.5872 13.707 7.84479 12.4591L7.67368 12.1814C7.55188 11.9827 7.41848 11.746 7.37788 11.5823C7.26768 11.1527 7.55478 10.8078 7.55478 10.8078C7.55478 10.8078 8.25949 10.0304 8.5872 9.60668C8.85998 9.25786 9.11456 8.89497 9.34991 8.51949C9.69211 7.96421 9.79941 7.39431 9.61961 6.95009C8.8076 4.95399 7.96659 2.96374 7.10238 0.9881C6.93128 0.596479 6.42377 0.312994 5.96266 0.260388L5.96263 0.260385C5.80604 0.242851 5.64945 0.225316 5.49285 0.213627Z" fill="#FAD762"/>
</svg>
