<svg width="124" height="95" viewBox="0 0 124 95" fill="none" xmlns="http://www.w3.org/2000/svg">
<path d="M6.92737 94.5752C2.30913 94.5752 -1.31403e-07 93.0721 -3.94209e-07 90.066C-5.96368e-07 87.7536 1.8473 86.2505 5.5419 85.5568C14.7784 83.4756 22.514 79.4288 28.7486 73.4165C34.7523 67.6355 37.7542 59.8889 37.7542 50.1767C37.7542 46.9393 36.3687 43.7019 33.5978 40.4645C30.8268 37.4584 27.594 35.6084 23.8994 34.9147C19.2812 34.221 15.5866 32.371 12.8156 29.3649C9.81377 26.59 8.31284 23.0057 8.31284 18.6121C8.31284 13.5248 10.391 9.24679 14.5475 5.77815C18.7039 2.30952 23.5531 0.575204 29.095 0.575204C38.1005 0.575203 45.4897 3.81259 51.2626 10.2874C57.0354 16.7622 59.9218 24.9713 59.9218 34.9147C59.9218 46.2456 57.1508 56.4202 51.6089 65.4387C45.8361 74.6884 38.7933 81.8569 30.4804 86.9442C22.1676 92.0315 14.3166 94.5752 6.92737 94.5752ZM71.0056 94.5752C66.3873 94.5752 64.0782 93.0721 64.0782 90.066C64.0782 87.7536 65.9255 86.2505 69.6201 85.5568C78.8566 83.4756 86.5922 79.4288 92.8268 73.4165C98.8305 67.6355 101.832 59.8889 101.832 50.1767C101.832 46.9393 100.447 43.7019 97.676 40.4645C94.905 37.4583 91.6722 35.6084 87.9776 34.9147C83.3594 34.221 79.6648 32.371 76.8939 29.3648C73.892 26.59 72.3911 23.0057 72.3911 18.6121C72.3911 13.5248 74.4693 9.24678 78.6257 5.77815C82.7821 2.30951 87.6313 0.575198 93.1732 0.575198C102.179 0.575197 109.568 3.81259 115.341 10.2874C121.114 16.7622 124 24.9713 124 34.9147C124 46.2456 121.229 56.4202 115.687 65.4387C109.914 74.6884 102.872 81.8569 94.5587 86.9442C86.2458 92.0315 78.3948 94.5752 71.0056 94.5752Z" fill="#FAD762"/>
</svg>
