<svg width="124" height="95" viewBox="0 0 124 95" fill="none" xmlns="http://www.w3.org/2000/svg">
<path d="M117.073 0.575195C121.691 0.575195 124 2.07827 124 5.08442C124 7.39685 122.153 8.89991 118.458 9.59363C109.222 11.6748 101.486 15.7216 95.2514 21.7339C89.2477 27.5149 86.2458 35.2615 86.2458 44.9737C86.2458 48.2111 87.6313 51.4485 90.4022 54.6859C93.1732 57.692 96.406 59.542 100.101 60.2357C104.719 60.9294 108.413 62.7794 111.184 65.7855C114.186 68.5604 115.687 72.1447 115.687 76.5383C115.687 81.6256 113.609 85.9036 109.453 89.3722C105.296 92.8409 100.447 94.5752 94.905 94.5752C85.8994 94.5752 78.5102 91.3378 72.7374 84.863C66.9646 78.3882 64.0782 70.1791 64.0782 60.2357C64.0782 48.9048 66.8492 38.7302 72.3911 29.7117C78.1639 20.462 85.2067 13.2935 93.5196 8.2062C101.832 3.11886 109.683 0.575195 117.073 0.575195ZM52.9944 0.575195C57.6127 0.575195 59.9218 2.07827 59.9218 5.08442C59.9218 7.39685 58.0745 8.89991 54.3799 9.59363C45.1434 11.6748 37.4078 15.7216 31.1732 21.7339C25.1695 27.5149 22.1676 35.2615 22.1676 44.9737C22.1676 48.2111 23.5531 51.4485 26.324 54.6859C29.095 57.692 32.3278 59.542 36.0224 60.2357C40.6406 60.9294 44.3352 62.7794 47.1061 65.7855C50.108 68.5604 51.6089 72.1447 51.6089 76.5383C51.6089 81.6256 49.5307 85.9036 45.3743 89.3722C41.2179 92.8409 36.3687 94.5752 30.8268 94.5752C21.8212 94.5752 14.432 91.3378 8.65922 84.863C2.88641 78.3882 0 70.1791 0 60.2357C0 48.9048 2.77095 38.7302 8.31285 29.7117C14.0857 20.462 21.1285 13.2935 29.4413 8.2062C37.7542 3.11886 45.6052 0.575195 52.9944 0.575195Z" fill="#FAD762"/>
</svg>
